<svg width="760" height="460" viewBox="0 0 760 460" fill="none" xmlns="http://www.w3.org/2000/svg">
  <rect width="760" height="460" rx="40" fill="#FFFDF8"/>
  <rect x="94" y="96" width="572" height="242" rx="26" fill="#F7EDDD" stroke="#D7C7B0" stroke-width="6"/>
  <path d="M120 176H638" stroke="#D7C7B0" stroke-width="6"/>
  <path d="M120 258H638" stroke="#D7C7B0" stroke-width="6"/>
  <rect x="146" y="124" width="38" height="52" rx="8" fill="#83B8D1"/>
  <rect x="194" y="112" width="40" height="64" rx="8" fill="#F5B783"/>
  <rect x="246" y="132" width="36" height="44" rx="8" fill="#8BAE95"/>
  <rect x="330" y="112" width="160" height="64" rx="18" fill="#FFFFFF" stroke="#D7C7B0" stroke-width="4"/>
  <path d="M358 137H460" stroke="#8A8F91" stroke-width="7" stroke-linecap="round"/>
  <path d="M358 157H430" stroke="#C6B8A4" stroke-width="6" stroke-linecap="round"/>
  <rect x="524" y="126" width="36" height="50" rx="8" fill="#C9DDAF"/>
  <rect x="570" y="108" width="42" height="68" rx="8" fill="#B7D6E8"/>
  <rect x="142" y="206" width="150" height="52" rx="16" fill="#FFFFFF" stroke="#D7C7B0" stroke-width="4"/>
  <path d="M166 226H260" stroke="#8A8F91" stroke-width="7" stroke-linecap="round"/>
  <path d="M166 244H230" stroke="#C6B8A4" stroke-width="6" stroke-linecap="round"/>
  <rect x="334" y="206" width="38" height="52" rx="8" fill="#F5B783"/>
  <rect x="382" y="194" width="40" height="64" rx="8" fill="#8BAE95"/>
  <rect x="438" y="214" width="34" height="44" rx="8" fill="#83B8D1"/>
  <rect x="516" y="206" width="104" height="52" rx="16" fill="#FFFFFF" stroke="#D7C7B0" stroke-width="4"/>
  <path d="M540 229H594" stroke="#8A8F91" stroke-width="7" stroke-linecap="round"/>
  <path d="M540 246H574" stroke="#C6B8A4" stroke-width="6" stroke-linecap="round"/>
  <path d="M100 385C185 350 279 353 360 388C440 424 546 426 660 382" stroke="#DDECCA" stroke-width="36" stroke-linecap="round"/>
  <circle cx="102" cy="74" r="15" fill="#F5B783"/>
  <circle cx="660" cy="74" r="15" fill="#83B8D1"/>
</svg>
